<svg id="Logo_3" data-name="Logo 3" xmlns="http://www.w3.org/2000/svg" width="330" height="47" viewBox="0 0 330 47">
  <defs>
    <style>
      .cls-1 {
        fill: #022e36;
      }

      .cls-1, .cls-2 {
        fill-rule: evenodd;
      }

      .cls-2 {
        fill: #f7d541;
      }

      .cls-3 {
        fill: #fff;
      }
    </style>
  </defs>
  <g id="Group_51_copy" data-name="Group 51 copy">
    <path id="UK" class="cls-1" d="M52.24,38.583a8.018,8.018,0,0,0,2.747-1.091,14.1,14.1,0,0,0,1.912-1.6,9.289,9.289,0,0,0,1.516-1.948,7.781,7.781,0,0,0,.864-2.6q0.264-1.56.425-3.611a38.691,38.691,0,0,1,.542-4.526,28.739,28.739,0,0,0,.571-4.512q0-1.626-1-1.626a1.764,1.764,0,0,0-1.56,1.384,31.489,31.489,0,0,0-.93,6.995q-0.381,5.493-1.289,7.515a5.207,5.207,0,0,1-2.673,2.79,10.705,10.705,0,0,1-4.285.769,5.822,5.822,0,0,1-3.23-1.465q-1.926-1.465-1.926-5.581a36.6,36.6,0,0,1,.41-4.241,32.426,32.426,0,0,1,.762-4.2,21.891,21.891,0,0,0,.674-2.651,2.484,2.484,0,0,0-.388-1.077,1.07,1.07,0,0,0-.754-0.7,1.3,1.3,0,0,0-.923.374,2.183,2.183,0,0,0-.579,1q-0.183.63-.652,3.75-0.249,1.568-.381,2.285a35.464,35.464,0,0,0-.732,5.61,11.735,11.735,0,0,0,1.1,5.1,6.545,6.545,0,0,0,3.186,3.281,8.751,8.751,0,0,0,3.523.967A13.926,13.926,0,0,0,52.24,38.583ZM74.132,25.392q0.278-.278,1.26-1.128,4.453-3.9,4.453-5.3a1.975,1.975,0,0,0-1.626-1.641q-0.469,0-1.538,1.875a12.674,12.674,0,0,1-1.641,2.249q-0.879.945-2.7,2.571a9.56,9.56,0,0,0-.894.893,14.911,14.911,0,0,1-1.457,1.37q-0.916.769-1.7,1.348a9.545,9.545,0,0,1-.93.645q-0.147.066-.154,0.015a0.759,0.759,0,0,1-.007-0.11q0.146-1.113.234-2.241A46.673,46.673,0,0,1,68.7,18.2q0.029-1.655-1.333-1.655a1.139,1.139,0,0,0-.644.234,1.6,1.6,0,0,0-.542.732,21.465,21.465,0,0,0-.6,3.208q-0.4,2.71-.659,5.391Q64.142,34.84,63.7,36.656a5.441,5.441,0,0,0-.19,1.2,1.356,1.356,0,0,0,.337.945,1.162,1.162,0,0,0,.908.373q1.465,0,1.67-4.028a17.407,17.407,0,0,1,.19-2.183,7.614,7.614,0,0,1,.645-2.329,1.21,1.21,0,0,1,.893-0.381,14.539,14.539,0,0,1,3.208,2.007L74.7,34.8a40.112,40.112,0,0,0,4.321,2.981,4.562,4.562,0,0,0,2.036.623,1.736,1.736,0,0,0,1.326-.52,2.04,2.04,0,0,0,.491-1.458,1.658,1.658,0,0,0-.059-0.454,13.775,13.775,0,0,1-2.322-.293A9.089,9.089,0,0,1,78.366,34.5q-1.494-1-4.351-3.245-2.71-2.124-3.516-2.7,3.135-2.7,3.633-3.164h0Z"/>
    <path id="BlackFriday" class="cls-2" d="M102.326,22.88a4.011,4.011,0,0,0,.952-2.439,3.774,3.774,0,0,0-1.487-2.937,5.766,5.766,0,0,0-3.874-1.267,27.887,27.887,0,0,0-8.555,1.3q-4.073,1.3-4.072,2.754a1.489,1.489,0,0,0,.1.513,1.63,1.63,0,0,0,.439.593,0.953,0.953,0,0,0,.776.271l0.4-.029q0.293,0,.293.732,0,0.366-.608,5.1a71.716,71.716,0,0,1-1.252,7.383,7.223,7.223,0,0,0-.249,1.421q0,2.534,1.963,2.534a2.105,2.105,0,0,0,1.3-.432,2.659,2.659,0,0,0,.689-1.926l0.146-1.978q0-.937.879-7t1.084-6.709q0.205-.644,2.109-1.084a17.2,17.2,0,0,1,3.882-.439q2.109,0,2.109,1.45,0,1.128-1.7,2.761a10.681,10.681,0,0,1-3.4,2.307q-2.988,1.216-2.988,1.934a1.71,1.71,0,0,0,.418,1.362,3.159,3.159,0,0,0,1.794.337,4.521,4.521,0,0,0,1.553-.454,7.512,7.512,0,0,1,1.157-.454,3.412,3.412,0,0,1,2.388.813,2.451,2.451,0,0,1,.894,1.853q0,1.714-2.183,3.376a6.575,6.575,0,0,1-3.618,1.663H92.951q-3.062,0-3.062,2.2,0,1.333,2.2,1.333a11.706,11.706,0,0,0,7.529-2.952q3.589-2.952,3.589-5.75a5.114,5.114,0,0,0-.813-2.651,6.558,6.558,0,0,0-3.552-2.315A19.664,19.664,0,0,0,102.326,22.88Zm7.1-8.459q-0.77,1.26-1.978,8.232a72.333,72.333,0,0,0-1.208,12.114,9.336,9.336,0,0,0,.425,3.369,1.487,1.487,0,0,0,1.464.981,1.982,1.982,0,0,0,1.407-.63,2.037,2.037,0,0,0,.644-1.509q0-.176-0.073-0.864a41.668,41.668,0,0,1-.278-4.424,43.085,43.085,0,0,1,.373-4.841,39.754,39.754,0,0,1,1.091-5.72q0.983-3.618,1.2-4.534a7.36,7.36,0,0,0,.219-1.707,1.466,1.466,0,0,0-1.582-1.729A2.121,2.121,0,0,0,109.424,14.42ZM126.2,38.575a2.818,2.818,0,0,0,1.575-.5,1.46,1.46,0,0,0,.754-1.245,0.858,0.858,0,0,0-.586-0.776,1.458,1.458,0,0,1-.7-0.5,9.483,9.483,0,0,1-.373-1,9.3,9.3,0,0,1-.257-2.637,26.744,26.744,0,0,1,.586-4.819,13.634,13.634,0,0,0,.323-2.227q0-1.289-1.685-1.289a2.277,2.277,0,0,0-2.344-1.8q-3.516,0-6.972,4.387t-3.457,8.269a3.773,3.773,0,0,0,.952,2.651,2.973,2.973,0,0,0,2.27,1.04q3.59,0,7.442-5.083-0.279,5.523,2.475,5.522h0Zm-2.615-13.22a1.873,1.873,0,0,1,.33,1.165q0,2.3-2.527,5.369t-4.255,3.069q-0.5,0-.5-1.2,0-2.285,2.365-5.559t3.846-3.274A0.932,0.932,0,0,1,123.589,25.355Zm16.8,11.6q2.585-1.809,2.585-2.937a0.712,0.712,0,0,0-.805-0.806,3.488,3.488,0,0,0-1.788.806,8.317,8.317,0,0,1-4.76,1.67q-2.139,0-2.139-1.977a11.813,11.813,0,0,1,1.875-5.7q1.875-3.252,3.018-3.252,0.542,0,.717,1.435,0.234,1.963,1.656,1.963a1.5,1.5,0,0,0,1-.491,2.606,2.606,0,0,0,.52-1.9,4.911,4.911,0,0,0-.981-2.878,2.859,2.859,0,0,0-2.373-1.384q-2.886,0-5.889,4.292t-3,7.983a5.084,5.084,0,0,0,1.26,3.662,4.85,4.85,0,0,0,3.677,1.318A9.324,9.324,0,0,0,140.392,36.957Zm19.9-13.469q0-1.245-1.552-1.245-1.613,0-5.054,3.325l-4.5,4.072q0.014-.659.659-4.893h-0.015l0.352-1.919q1.23-6.489,1.23-7.441a2.146,2.146,0,0,0-.388-1.3,1.215,1.215,0,0,0-1.033-.535,1.959,1.959,0,0,0-1.259.476,2.776,2.776,0,0,0-.865,1.274,21.73,21.73,0,0,0-.629,3.369q-0.353,2.571-.821,7.156a83.94,83.94,0,0,1-1.186,9.214,15.321,15.321,0,0,0-.367,2.314,1.43,1.43,0,0,0,.484.989,1.805,1.805,0,0,0,1.348.491,1.867,1.867,0,0,0,1.413-.615,2.235,2.235,0,0,0,.579-1.6,16.406,16.406,0,0,1,.249-3.179V33.434a4.811,4.811,0,0,1,.674-0.806,2.063,2.063,0,0,1,.615-0.527,14.488,14.488,0,0,1,1.977,2.212,22.258,22.258,0,0,0,3.369,3.538,3.734,3.734,0,0,0,2.168.784,3.428,3.428,0,0,0,2.564-.791,2.21,2.21,0,0,0,.747-1.392,0.868,0.868,0,0,0-.212-0.637,0.764,0.764,0,0,0-.564-0.212l-0.645.015a3.251,3.251,0,0,1-1.985-.776,27.174,27.174,0,0,1-2.717-2.571,8.762,8.762,0,0,1-1.714-2.058,1.415,1.415,0,0,1,.483-0.732A15.571,15.571,0,0,1,155.414,28q1-.762,1.978-1.421,0.526-.352,1.377-0.82l0.029-.029h-0.015a2.32,2.32,0,0,0,1.509-2.241h0Zm18.326-3.794a2.073,2.073,0,0,0,1.143-1.89,1.206,1.206,0,0,0-.769-0.784,4.457,4.457,0,0,0-2.161-.432q-1.319,0-4,.293-4.116.469-4.688,0.469a5.328,5.328,0,0,1-1.128-.117,3.255,3.255,0,0,0-.732-0.088,1.777,1.777,0,0,0-1.15.579,1.594,1.594,0,0,0-.622,1.106,3.27,3.27,0,0,0,.219,1.011,2.2,2.2,0,0,1,.147.85q-1.494,10.664-1.524,10.825a48.053,48.053,0,0,0-.439,5.464,1.982,1.982,0,0,0,.74,1.626,2.44,2.44,0,0,0,1.56.6,1.478,1.478,0,0,0,1.611-1.728l-0.059-1.86q0-1.333.125-2.908a11.816,11.816,0,0,1,.205-1.772,0.477,0.477,0,0,1,.242-0.271,28.951,28.951,0,0,1,3.34-.557l3.925-.483a8.816,8.816,0,0,0,1.846-.4,2.6,2.6,0,0,0,.93-0.681,1.336,1.336,0,0,0,.432-0.754q0-1.553-2.226-1.553a15.784,15.784,0,0,0-2.637.293q-1.964.366-4.233,0.6-0.615.074-1.216,0.161a25.9,25.9,0,0,1,1.142-6.636,13.937,13.937,0,0,1,3.2-.615A37.488,37.488,0,0,1,176,19.781a7.539,7.539,0,0,1,1.26.073,1.989,1.989,0,0,0,.512.059,1.5,1.5,0,0,0,.85-0.234v0.015Zm4.805,8.745a12.484,12.484,0,0,1,.4-1.787,12.923,12.923,0,0,0,.659-2.856,1.458,1.458,0,0,0-.41-1,1.537,1.537,0,0,0-1.2-.454,2.2,2.2,0,0,0-1.363.469,2.1,2.1,0,0,0-.783,1,10.935,10.935,0,0,0-.3,1.97q-0.028.366-.1,1.011-0.279,2.476-.337,4.189-0.058,1.817-.059,2.886a11.866,11.866,0,0,0,.425,3.757,1.491,1.491,0,0,0,1.436,1.15,2.2,2.2,0,0,0,1.508-.491,2.7,2.7,0,0,0,.718-1.721,15.724,15.724,0,0,1,3.106-7.676q2.577-3.413,3.676-3.413a1.473,1.473,0,0,1,.835.483,2.3,2.3,0,0,0,1.656.747,1.006,1.006,0,0,0,.893-0.505A2.2,2.2,0,0,0,194.5,25a2.5,2.5,0,0,0-.945-1.948,3.587,3.587,0,0,0-2.439-.82q-1.948,0-3.992,2.219a24.877,24.877,0,0,0-3.816,5.779l-0.249.469Zm18.392-13.616a2.209,2.209,0,0,0-1.589-.579,2.671,2.671,0,0,0-1.934.652,2.268,2.268,0,0,0-.674,1.707,2.174,2.174,0,0,0,.681,1.465,2.079,2.079,0,0,0,1.56.732,2.736,2.736,0,0,0,1.626-.784,2.325,2.325,0,0,0,.938-1.824A1.83,1.83,0,0,0,201.815,14.823Zm-6.731,14.9a32.25,32.25,0,0,0-.7,6.064q0,2.93,1.934,2.93a2.019,2.019,0,0,0,1.369-.571,1.542,1.542,0,0,0,.637-0.908,2.682,2.682,0,0,0-.044-0.439,12.5,12.5,0,0,1-.307-2.388q0-1.1.161-2.886a26.249,26.249,0,0,1,.967-4.614l0.088-.322a11.153,11.153,0,0,0,.542-2.417,1.365,1.365,0,0,0-.557-1.055,2.341,2.341,0,0,0-1.553-.469,1.5,1.5,0,0,0-1.325.732,3.261,3.261,0,0,0-.477,1.816q0,0.381-.468,3.047V28.234c-0.079.469-.166,0.967-0.264,1.494h0Zm18.165,7.046a2.364,2.364,0,0,0,2.168,1.509,4.925,4.925,0,0,0,2.761-1,2.686,2.686,0,0,0,1.457-2.014,0.691,0.691,0,0,0-.717-0.835,2.683,2.683,0,0,0-.909.293,2.829,2.829,0,0,1-1.215.308q-1.115,0-1.114-2.534a38.351,38.351,0,0,1,.9-7.134,65.235,65.235,0,0,1,1.956-7.646,12.306,12.306,0,0,0,.644-2.358,2.826,2.826,0,0,0-.4-1.553,1.278,1.278,0,0,0-1.143-.615,1.968,1.968,0,0,0-1.04.4,2.4,2.4,0,0,0-.893,1.135,20.083,20.083,0,0,0-.733,2.959q-0.206,1.2-1.3,6.006a3.18,3.18,0,0,0-2.623-.967q-3.207,0-6.335,3.779a11.925,11.925,0,0,0-3.127,7.6,4.915,4.915,0,0,0,.952,3.113,3.02,3.02,0,0,0,2.5,1.223q3.837,0,7.631-5.376A6.817,6.817,0,0,0,213.249,36.774Zm-0.967-10.745a1.454,1.454,0,0,1,.469,1.033q0,1.846-2.476,5.024t-4.263,3.179q-1.055,0-1.054-1.421a9.5,9.5,0,0,1,2.087-5.361q2.088-2.93,4.006-2.93A1.652,1.652,0,0,1,212.282,26.029Zm21.724,12.546a2.818,2.818,0,0,0,1.575-.5,1.46,1.46,0,0,0,.754-1.245,0.858,0.858,0,0,0-.586-0.776,1.458,1.458,0,0,1-.7-0.5,9.483,9.483,0,0,1-.373-1,9.3,9.3,0,0,1-.257-2.637A26.744,26.744,0,0,1,235,27.106a13.6,13.6,0,0,0,.322-2.227q0-1.289-1.684-1.289a2.278,2.278,0,0,0-2.344-1.8q-3.516,0-6.972,4.387t-3.458,8.269a3.773,3.773,0,0,0,.953,2.651,2.973,2.973,0,0,0,2.27,1.04q3.589,0,7.442-5.083-0.279,5.523,2.475,5.522h0Zm-2.615-13.22a1.873,1.873,0,0,1,.33,1.165q0,2.3-2.527,5.369t-4.255,3.069q-0.5,0-.5-1.2,0-2.285,2.365-5.559t3.846-3.274A0.932,0.932,0,0,1,231.391,25.355Zm21.512-.872a3.02,3.02,0,0,0-.4-1.934,1.874,1.874,0,0,0-1.369-.41,1.691,1.691,0,0,0-1.143.366,1.491,1.491,0,0,0-.52.806,17.4,17.4,0,0,0-.168,2.139,22.078,22.078,0,0,1-.367,3.772,4.279,4.279,0,0,1-.629,1.4,9.874,9.874,0,0,1-1.751,1.589,11.214,11.214,0,0,1-2.358,1.472,4.538,4.538,0,0,1-1.707.425,0.794,0.794,0,0,1-.593-0.535,3.382,3.382,0,0,1-.286-1.56,11.583,11.583,0,0,1,1.289-4.746,17.3,17.3,0,0,0,1.055-2.476,2.475,2.475,0,0,0-.381-1.34,1.209,1.209,0,0,0-1.084-.608,2.15,2.15,0,0,0-1.882.813,15.539,15.539,0,0,0-1.406,4.19,23.583,23.583,0,0,0-.828,5.149,4.991,4.991,0,0,0,.923,3.032,2.942,2.942,0,0,0,2.505,1.26q2.445,0,6.972-3.574a22.487,22.487,0,0,1-1.7,7.28q-1.347,3.032-2.8,3.032a6.479,6.479,0,0,1-5.449-2.417,0.986,0.986,0,0,0-.806-0.41,1.117,1.117,0,0,0-.9.41,1.651,1.651,0,0,0-.345,1.1,2.922,2.922,0,0,0,1.15,1.831,8.848,8.848,0,0,0,2.7,1.729h-0.015a9.735,9.735,0,0,0,3.765.747,5.135,5.135,0,0,0,3.157-.989,8.931,8.931,0,0,0,2.475-3.713,28.231,28.231,0,0,0,1.743-6.072,63.254,63.254,0,0,0,.828-6.907Z"/>
    <path id="Deals" class="cls-1" d="M258.311,22.213q-0.292,1.612-.754,5.471t-0.535,5.588a21.437,21.437,0,0,1-.212,2.417,5.517,5.517,0,0,1-.432,1.333,2.81,2.81,0,0,0-.293.762,1.817,1.817,0,0,0,.432.945,1.224,1.224,0,0,0,.989.593,3.835,3.835,0,0,0,1.992-.82,11.424,11.424,0,0,1,3.472-1.245q6.489-1.552,10-4.915a10.144,10.144,0,0,0,3.508-7.449,7.8,7.8,0,0,0-2.453-6,9.169,9.169,0,0,0-6.5-2.278q-1.156,0-3.486.191T260.26,17l-2.051-.059a1.378,1.378,0,0,0-1.018.52,1.572,1.572,0,0,0-.476,1.062q0,0.718,1.2,1.011a0.749,0.749,0,0,1,.659.747,12.646,12.646,0,0,1-.264,1.934h0Zm4.1-3.047A36.061,36.061,0,0,1,267,18.815a7.544,7.544,0,0,1,5.046,1.619,5.383,5.383,0,0,1,1.912,4.329,8.168,8.168,0,0,1-2.476,5.83,14.881,14.881,0,0,1-6.445,3.794,25.265,25.265,0,0,1-4.907,1.23,0.718,0.718,0,0,1-.454-0.1,4.119,4.119,0,0,1-.191-1.436,104.963,104.963,0,0,1,1.743-14.78q0.587-.044,1.187-0.132h0Zm28.58,13.081a1.342,1.342,0,0,0-.733.483q-3.281,3.486-6.43,3.486a2.756,2.756,0,0,1-2.081-.732,2.7,2.7,0,0,1-.7-1.948,1.17,1.17,0,0,1,.762-1.025,28.354,28.354,0,0,0,5.918-4.058,5.948,5.948,0,0,0,2.212-4.321,2.416,2.416,0,0,0-2.49-2.446q-3.355,0-6.182,3.779a13.1,13.1,0,0,0-2.827,7.969,5.513,5.513,0,0,0,1.282,3.882,4.7,4.7,0,0,0,3.64,1.392,8.667,8.667,0,0,0,5.456-2.109q2.644-2.109,2.644-3.6,0-.747-0.468-0.747h0Zm-7.332-6.372q1.692-1.977,3.04-1.977a0.741,0.741,0,0,1,.791.879q0,2.241-6.211,5.933A11.416,11.416,0,0,1,283.661,25.875Zm20.867,11.177a2.179,2.179,0,0,0,1.861,1.553,2.076,2.076,0,0,0,1.216-.461,1.236,1.236,0,0,0,.629-0.916,1.012,1.012,0,0,0-.644-0.864q-1.349-.7-1.348-4.248a39.59,39.59,0,0,1,.791-6.094,7.248,7.248,0,0,0,.147-1.245,0.938,0.938,0,0,0-1.172-.908,0.635,0.635,0,0,1-.6-0.469,1.956,1.956,0,0,0-1.831-1.406q-3.4,0-6.841,4.446t-3.442,8.3a3.614,3.614,0,0,0,.82,2.446,2.5,2.5,0,0,0,1.949.952,6.659,6.659,0,0,0,3.676-1.377,17.926,17.926,0,0,0,4.058-4.131A10.659,10.659,0,0,0,304.528,37.052Zm-0.249-10.576q0,2.725-2.856,5.977T296.955,35.7q-1.113,0-1.113-1.684,0-2.388,2.563-6.013t4.5-3.625q1.377,0,1.377,2.095h0Zm10.365-12.085q-0.7,1.23-1.875,8.481A78.09,78.09,0,0,0,311.59,35.03a11.57,11.57,0,0,0,.3,3.12,1.131,1.131,0,0,0,1.076.967,1.452,1.452,0,0,0,1.055-.527,1.771,1.771,0,0,0,.5-1.26,5.8,5.8,0,0,0-.058-0.659,37.574,37.574,0,0,1-.308-4.8,44.944,44.944,0,0,1,.439-5.376,43.038,43.038,0,0,1,1.246-6.27,29.922,29.922,0,0,0,1.274-5.713q0-1.348-1.055-1.348A1.907,1.907,0,0,0,314.644,14.391Zm9.339,21.563a12.5,12.5,0,0,1-3.487.542,4.347,4.347,0,0,1-.791-0.147,4.464,4.464,0,0,0-.835-0.146,2.41,2.41,0,0,0-1.076.264,0.864,0.864,0,0,0-.535.82q0,1.611,2.373,1.611a15.557,15.557,0,0,0,5.9-1.267q3.091-1.267,3.091-3.508a2.776,2.776,0,0,0-.989-2.117,10.881,10.881,0,0,0-2.644-1.692,14.12,14.12,0,0,1-2.841-1.633,1.926,1.926,0,0,1-.791-1.487q0-1.348,2.241-2.417a9.349,9.349,0,0,1,2.973-1.069,2.1,2.1,0,0,1,.616.2,1.949,1.949,0,0,0,.63.22,1.126,1.126,0,0,0,.608-0.322,0.979,0.979,0,0,0,.388-0.776,1.687,1.687,0,0,0-.535-1.421,2.854,2.854,0,0,0-1.721-.41,9.5,9.5,0,0,0-4.768,1.919,5.652,5.652,0,0,0-2.923,4.834A2.68,2.68,0,0,0,319.918,30a22.1,22.1,0,0,0,4.021,2.439q2.343,1.216,2.344,2.168A3.727,3.727,0,0,1,323.983,35.953Z"/>
    <g>
      <path class="cls-2" d="M11.41,14.311L0.312,31.243a2.716,2.716,0,0,0,1.363,3.848l14.6,9.236a2.5,2.5,0,0,0,3.7-.385l4.284-6.927s2.5,1.76,4.478-.192c0,0,2.386-1.512.973-5a11.646,11.646,0,0,0,3.115-5.2s-1.52,1.512-4.089,3.656a9.377,9.377,0,0,1-8.373,1.539s-3.678-.52-4.868-6.157c0,0-.917-4.314-1.168-5.772C14.331,19.89,13.368,14.936,11.41,14.311Z"/>
      <ellipse class="cls-3" cx="19.281" cy="34.031" rx="1.844" ry="1.844"/>
      <ellipse id="Ellipse_23_copy" data-name="Ellipse 23 copy" class="cls-3" cx="26.5" cy="34.031" rx="1.844" ry="1.844"/>
      <path class="cls-1" d="M14.136,10.078l2.726-4.233s1.284-2.478,3.31-3.079l11.488-2.5s2.87-1.211,3.7,1.539c0,0,2.059,8.973,2.337,10.583a6.458,6.458,0,0,1-.584,5.195L31.27,26.048l0.195-3.463S31.6,21.1,29.518,21.045l-8.567-.577s-2.635,0-1.558,2.309c0,0,.023.594,1.558,0.77l7.2,0.385a5.042,5.042,0,0,1-3.5,5.2s-5.142,1.167-5.841-2.886a12.362,12.362,0,0,1-.779-3.079S17.122,17.3,15.888,15.08c0,0-1.258-3.072-3.894-4.041,0,0-5.3-2.625-7.594.962,0,0-.728-2.992,2.921-3.656A10.5,10.5,0,0,1,14.136,10.078Z"/>
      <circle id="Ellipse_23_copy_2" data-name="Ellipse 23 copy 2" class="cls-3" cx="32.625" cy="2.938" r="1.563"/>
    </g>
  </g>
</svg>
