<svg xmlns="http://www.w3.org/2000/svg" width="607" height="98" viewBox="0 0 607 98">
    <g fill="none" fill-rule="evenodd">
        <g transform="translate(150)">
            <path fill="#80E1CB" fill-rule="nonzero" d="M37.095 33.66L32.2 28.92a4.239 4.239 0 0 0 0-3.87l4.884-4.71.913.88L56 7.71 48.004 0l-14 17.36.903.88-4.885 4.71a4.7 4.7 0 0 0-4.013 0l-4.916-4.71.913-.88L7.996 0 0 7.71l18.003 13.51.913-.88 4.884 4.74a4.245 4.245 0 0 0 0 3.87l-4.884 4.71v.01l-.913-.88L0 46.29 7.996 54l14.01-17.36-.913-.88 4.885-4.71a4.7 4.7 0 0 0 4.013 0l4.916 4.72-.903.87 14 17.36L56 46.29l-18.003-13.5-.902.87zM28 29c-1.14 0-2.074-.9-2.074-2s.933-2 2.074-2c1.14 0 2.074.9 2.074 2s-.933 2-2.074 2z"/>
            <path fill="#F7567C" fill-rule="nonzero" d="M24.923 41.52l-4.43 30.24-1.478 25.92h17.723l-1.476-25.92-4.431-30.24z"/>
            <path fill="#FFF" d="M26 78h4v20h-4z"/>
            <circle cx="28" cy="68" r="4" fill="#FFF"/>
        </g>
        <path fill="#000" fill-rule="nonzero" d="M14.24 59.02H.8v-3.96h31.56v3.96H18.92V97h-4.68V59.02zm24.12-3.96h4.68v18.6h23.64v-18.6h4.68V97h-4.68V77.62H43.04V97h-4.68V55.06zm41.4 0h27v3.96H84.44v15h16.74v3.96H84.44v15.06h22.32V97h-27V55.06zM123.7 55.06h15.06c4.6 0 8.62.84 12.06 2.52 3.44 1.68 6.09 4.09 7.95 7.23 1.86 3.14 2.79 6.81 2.79 11.01 0 6.96-2.04 12.23-6.12 15.81S145.7 97 138.46 97H123.7V55.06zm15.66 33c3.64 0 6.43-1.1 8.37-3.3 1.94-2.2 2.91-5.18 2.91-8.94 0-3.44-.97-6.27-2.91-8.49-1.94-2.22-4.61-3.33-8.01-3.33h-5.4v24.06h5.04zm70.88 9.84c-2.64 0-5.26-.25-7.86-.75-2.6-.5-4.74-1.19-6.42-2.07v-9.54a29.56 29.56 0 0 0 6.75 2.52c2.34.56 4.57.84 6.69.84 1.96 0 3.44-.3 4.44-.9 1-.6 1.5-1.46 1.5-2.58 0-.84-.27-1.57-.81-2.19-.54-.62-1.33-1.19-2.37-1.71s-2.66-1.24-4.86-2.16c-3.88-1.64-6.7-3.46-8.46-5.46-1.76-2-2.64-4.46-2.64-7.38 0-2.4.67-4.54 2.01-6.42 1.34-1.88 3.21-3.34 5.61-4.38 2.4-1.04 5.16-1.56 8.28-1.56 2.56 0 4.84.2 6.84.6 2 .4 3.92 1.04 5.76 1.92v9.3c-3.52-1.84-7.06-2.76-10.62-2.76-1.92 0-3.45.31-4.59.93-1.14.62-1.71 1.51-1.71 2.67s.58 2.1 1.74 2.82c1.16.72 3.3 1.7 6.42 2.94 2.84 1.16 5.05 2.3 6.63 3.42s2.73 2.42 3.45 3.9c.72 1.48 1.08 3.36 1.08 5.64 0 3.88-1.41 6.91-4.23 9.09-2.82 2.18-7.03 3.27-12.63 3.27zm46.72 0c-4.56 0-8.57-.88-12.03-2.64-3.46-1.76-6.13-4.29-8.01-7.59s-2.82-7.17-2.82-11.61c0-4.44.94-8.31 2.82-11.61 1.88-3.3 4.55-5.84 8.01-7.62 3.46-1.78 7.47-2.67 12.03-2.67 3 0 5.68.3 8.04.9 2.36.6 4.54 1.54 6.54 2.82v10.08c-1.76-1.4-3.75-2.42-5.97-3.06-2.22-.64-4.77-.96-7.65-.96-4.12 0-7.3 1.07-9.54 3.21-2.24 2.14-3.36 5.11-3.36 8.91s1.13 6.78 3.39 8.94c2.26 2.16 5.43 3.24 9.51 3.24 2.88 0 5.46-.34 7.74-1.02 2.28-.68 4.4-1.76 6.36-3.24V94c-3.8 2.6-8.82 3.9-15.06 3.9zm44.62 0c-4.24 0-8.07-.92-11.49-2.76-3.42-1.84-6.12-4.41-8.1-7.71-1.98-3.3-2.97-7.09-2.97-11.37 0-4.28.99-8.08 2.97-11.4 1.98-3.32 4.68-5.9 8.1-7.74 3.42-1.84 7.25-2.76 11.49-2.76 4.2 0 8.01.92 11.43 2.76 3.42 1.84 6.11 4.42 8.07 7.74 1.96 3.32 2.94 7.12 2.94 11.4s-.98 8.07-2.94 11.37c-1.96 3.3-4.65 5.87-8.07 7.71-3.42 1.84-7.23 2.76-11.43 2.76zm0-9.96c2.12 0 4.06-.48 5.82-1.44 1.76-.96 3.16-2.34 4.2-4.14 1.04-1.8 1.56-3.9 1.56-6.3s-.51-4.49-1.53-6.27c-1.02-1.78-2.41-3.16-4.17-4.14-1.76-.98-3.72-1.47-5.88-1.47-2.2 0-4.18.49-5.94 1.47-1.76.98-3.15 2.36-4.17 4.14-1.02 1.78-1.53 3.87-1.53 6.27 0 2.4.51 4.5 1.53 6.3 1.02 1.8 2.42 3.18 4.2 4.14 1.78.96 3.75 1.44 5.91 1.44zm50.92 9.96c-6.32 0-11.08-1.69-14.28-5.07-3.2-3.38-4.8-7.85-4.8-13.41V55.06h10.62v24.48c0 2.8.75 4.92 2.25 6.36 1.5 1.44 3.57 2.16 6.21 2.16s4.7-.72 6.18-2.16c1.48-1.44 2.22-3.56 2.22-6.36V55.06h10.62v24.36c0 5.6-1.59 10.08-4.77 13.44-3.18 3.36-7.93 5.04-14.25 5.04zm29.62-42.84h10.5l15.42 24.96V55.06h10.62V97h-10.44l-15.48-25.02V97h-10.62V55.06zM439.28 64h-11.82v-8.94h34.32V64H449.9v33h-10.62V64z"/>
        <path fill="#F7567C" fill-rule="nonzero" d="M482.9 55.06h6.12l14.94 32.7 14.94-32.7h6.12V97h-5.94V67.18L505.46 97h-3l-13.68-29.82V97h-5.88V55.06zm49.92 0H539V97h-6.18V55.06zm13.98 0h6.12V91.9h21.24V97H546.8V55.06zm32.76 0h6.12V91.9h21.24V97h-27.36V55.06z"/>
    </g>
</svg>
