<svg xmlns="http://www.w3.org/2000/svg" width="11" height="17" viewBox="0 0 11 17">
    <g fill="#F7567C" fill-rule="nonzero">
        <path d="M10.6 5.939C10.6 3.1 8.317.8 5.5.8 2.683.8.4 3.1.4 5.939v5.322C.4 14.1 2.683 16.4 5.5 16.4c2.817 0 5.1-2.3 5.1-5.139V5.94zm-.729 5.322a4.411 4.411 0 0 1-2.185 3.815 4.343 4.343 0 0 1-4.372 0A4.411 4.411 0 0 1 1.13 11.26V5.94c0-1.574.833-3.028 2.185-3.815a4.343 4.343 0 0 1 4.372 0A4.411 4.411 0 0 1 9.87 5.94v5.322z"/>
        <path d="M5.5 4.53a.366.366 0 0 0-.364.366v2.085c0 .203.163.367.364.367a.366.366 0 0 0 .364-.367V4.896A.366.366 0 0 0 5.5 4.53z"/>
    </g>
</svg>
