<?xml version="1.0" encoding="UTF-8"?>
<svg width="78px" height="12px" viewBox="0 0 78 12" version="1.1" xmlns="http://www.w3.org/2000/svg" xmlns:xlink="http://www.w3.org/1999/xlink">
    <title>Group</title>
    <g id="Page-1" stroke="none" stroke-width="1" fill="none" fill-rule="evenodd">
        <g id="star_shopper-booth" transform="translate(-306.000000, -61.000000)" fill="#D8D8D8" fill-rule="nonzero">
            <g id="Group" transform="translate(306.000000, 61.000000)">
                <polygon id="Path-6-Copy-15" points="3.99832469 4.13508249 6.07902076 0 8.13179014 4.13508249 12 4.13508249 9.14349747 7.25152841 11.2045179 12 6.07902076 9.49797705 0.626971894 12 2.70973072 7.25152841 8.52651283e-14 4.13508249"></polygon>
                <polygon id="Path-6-Copy-16" points="20.9983247 4.13508249 23.0790208 0 25.1317901 4.13508249 29 4.13508249 26.1434975 7.25152841 28.2045179 12 23.0790208 9.49797705 17.6269719 12 19.7097307 7.25152841 17 4.13508249"></polygon>
                <polygon id="Path-6-Copy-17" points="36.9983247 4.13508249 39.0790208 0 41.1317901 4.13508249 45 4.13508249 42.1434975 7.25152841 44.2045179 12 39.0790208 9.49797705 33.6269719 12 35.7097307 7.25152841 33 4.13508249"></polygon>
                <polygon id="Path-6-Copy-18" points="53.9983247 4.13508249 56.0790208 0 58.1317901 4.13508249 62 4.13508249 59.1434975 7.25152841 61.2045179 12 56.0790208 9.49797705 50.6269719 12 52.7097307 7.25152841 50 4.13508249"></polygon>
                <polygon id="Path-6-Copy-19" points="69.9983247 4.13508249 72.0790208 0 74.1317901 4.13508249 78 4.13508249 75.1434975 7.25152841 77.2045179 12 72.0790208 9.49797705 66.6269719 12 68.7097307 7.25152841 66 4.13508249"></polygon>
            </g>
        </g>
    </g>
</svg>